<?xml version="1.0" standalone="no"?> <!DOCTYPE svg PUBLIC "-//W3C//DTD SVG 1.0//EN" "http://www.w3.org/TR/2001/REC-SVG-20010904/DTD/svg10.dtd" > <svg xmlns="http://www.w3.org/2000/svg" width="100%" height="100%">
<defs >
<font id="latothinitalic" horiz-adv-x="1010" ><font-face
    font-family="Lato"
    units-per-em="2000"
    panose-1="2 15 5 2 2 2 4 3 2 3"
    ascent="1974"
    descent="-426"
    alphabetic="0" />
<missing-glyph horiz-adv-x="1006" d="M269 1130Q288 1149 311 1166T362 1198T424 1220T498 1229Q547 1229 591 1215T668 1172T720 1105T740 1016Q740 961 723 922T680 852T624 799T567 756T523 716T503 670L496 550H461L458 674Q457 703 474 725T517 769T573
812T630 862T673 926T691 1013Q691 1054 675 1086T631 1140T569 1174T495 1186Q447 1186 411 1173T351 1144T313 1115T295 1102Q286 1102 282 1108L269 1130ZM417 250Q417 276 434 294T477 312Q503 312 520 294T537 250Q537 225 520 208T477 190Q451 190 434 207T417
250ZM49 1406H957V0H49V1406ZM75 26H930V1380H75V26Z" />
<glyph unicode=" " glyph-name="null" horiz-adv-x="523" />
<glyph unicode="!" glyph-name="null" horiz-adv-x="458" d="M351 1406L281 834Q275 789 270 750T258 671T245 584T228 480H193Q198 538 202 584T210 670T218 750T228 834L298 1406H351ZM96 59Q96 91 117 113T171 136Q203 136 225 114T248 59Q248 27 226 6T171
-16Q139 -16 118 5T96 59Z" />
<glyph unicode="&quot;" glyph-name="null" horiz-adv-x="607" d="M300 1406L264 1113L241 960Q238 942 222 942Q208 942 206 960L220 1113L257 1406H300ZM547 1406L511 1113L488 960Q485 942 469 942Q455 942 453 960L467 1113L504 1406H547Z" />
<glyph unicode="#" glyph-name="null" horiz-adv-x="1160" d="M825 915H500L355 491H680L825 915ZM1110 952L1104 934Q1101 915 1077 915H869L724 491H973Q995 491 992 468L987 453H714L559 0H540Q529 0 524 6T524 27L669 453H344L199 25Q194 11 186 6T168 0H146L300
453H98Q88 453 83 458T81 476L84 491H310L455 915H190L194 933Q197 952 222 952H464L611 1381Q620 1406 643 1406H664L508 952H833L989 1406H1012Q1022 1406 1026 1399T1025 1378L878 952H1110Z" />
<glyph unicode="$" glyph-name="null" horiz-adv-x="1160" d="M691 1378Q602 1375 534 1347T418 1272T347 1166T322 1041Q322 981 344 939T403 866T489 813T591 772L691 1378ZM508 28Q604 32 680 65T811 153T894 279T923 429Q923 495 898 539T830 615T732 667T619
709L508 28ZM735 1422Q835 1417 905 1382T1033 1280L1021 1263Q1015 1253 1004 1253Q993 1253 977 1271T930 1313T851 1355T728 1378L627 759Q691 737 753 713T864 654T943 568T974 440Q974 350 941 269T847 126T698 26T501 -16L463 -246Q461 -268 441 -268H421L462
-16Q395 -15 341 -2T243 35T164 92T97 167L112 185Q122 194 132 194Q139 194 150 182T178 152T219 113T279 73T360 41T469 27L583 721Q524 741 469 764T370 823T300 908T273 1031Q273 1107 302 1176T386 1300T520 1387T698 1422L727 1600Q730 1622 748 1622H768L735
1422Z" />
<glyph unicode="%" glyph-name="null" horiz-adv-x="1424" d="M694 1133Q694 1028 668 950T598 820T498 743T381 717Q332 717 291 735T219 789T172 879T155 1004Q155 1109 180 1187T249 1318T348 1396T468 1422Q516 1422 557 1404T629 1349T677 1259T694 1133ZM651
1132Q651 1197 637 1244T597 1323T538 1370T464 1386Q411 1386 363 1364T277 1295T218 1176T196 1004Q196 939 210 892T250 814T310 768T386 753Q438 753 485 775T570 843T629 961T651 1132ZM1236 1394Q1242 1400 1247 1403T1262 1406H1297L204 12Q195 0 180 0H145L1236
1394ZM1295 399Q1295 294 1269 216T1199 87T1099 10T982 -16Q933 -16 892 2T820 56T773 145T756 270Q756 375 781 453T850 584T949 662T1069 688Q1117 688 1158 670T1230 616T1278 525T1295 399ZM1252 399Q1252 464 1238 511T1198 590T1139 637T1065 653Q1012 653
964 631T878 561T819 442T797 270Q797 205 811 158T851 80T911 34T987 19Q1039 19 1086 41T1171 109T1230 228T1252 399Z" />
<glyph unicode="&amp;" glyph-name="null" horiz-adv-x="1273" d="M484 753Q408 724 344 679T232 577T159 453T132 312Q132 241 157 188T223 98T314 44T415 26Q485 26 550 45T673 99T781 179T874 278L500 733L484 753ZM1171 0H1130Q1115 0 1107 3T1087 18L902
244Q856 189 801 142T684 59T551 4T406 -16Q341 -16 282 5T178 68T106 169T79 306Q79 389 109 463T192 599T314 706T462 781Q408 854 381 921T354 1063Q354 1141 380 1207T454 1321T566 1395T708 1422Q765 1422 813 1403T897 1348T953 1262T973 1150L947 1147Q939
1146 934 1150T928 1166Q927 1196 915 1233T877 1303T808 1358T705 1381Q638 1381 583 1358T487 1294T425 1196T403 1072Q403 997 437 920T537 765L906 320Q960 396 995 475T1044 625Q1046 633 1050 638T1064 643H1094Q1082 561 1042 467T935 285L1171 0Z" />
<glyph unicode="&apos;" glyph-name="null" horiz-adv-x="360" d="M300 1406L264 1113L241 960Q238 942 222 942Q208 942 206 960L220 1113L257 1406H300Z" />
<glyph unicode="(" glyph-name="null" horiz-adv-x="487" d="M164 455Q164 374 173 288T200 117T244 -52T307 -210Q313 -221 310 -227T301 -236L278 -249Q235 -160 205 -70T155 108T126 281T117 445Q117 527 121 606T139 764T178 927T246 1101T348 1294T494 1512L515
1499Q519 1496 520 1490T515 1473Q427 1351 362 1237T252 1002T186 749T164 455Z" />
<glyph unicode=")" glyph-name="null" horiz-adv-x="487" d="M332 808Q332 889 323 975T296 1146T251 1315T188 1473Q183 1483 186 1489T194 1499L219 1512Q304 1332 341 1154T378 817Q378 735 374 657T356 499T317 336T251 162T148 -31T3 -249L-18 -236Q-30 -229
-18 -210Q70 -88 135 32T244 276T310 532T332 808Z" />
<glyph unicode="*" glyph-name="null" horiz-adv-x="786" d="M524 1218Q511 1211 502 1207T477 1200Q492 1195 500 1193T519 1183L688 1068L669 1040L502 1155Q490 1162 484 1167T468 1186Q470 1169 471 1160T470 1137L442 915H410L438 1137Q440 1151 442 1161T453
1187Q439 1173 432 1168T411 1155L217 1040L205 1068L399 1183Q411 1190 421 1192T448 1200Q431 1205 423 1208T403 1218L236 1333L255 1361L422 1246Q433 1239 438 1232T457 1210Q454 1229 453 1239T453 1264L480 1486H512L485 1264Q483 1250 480 1240T470 1212Q483
1226 492 1232T513 1246L707 1361L718 1333L524 1218Z" />
<glyph unicode="+" glyph-name="null" horiz-adv-x="1160" d="M1052 650H607L550 186H508L565 650H123L128 690H570L627 1153H669L612 690H1056L1052 650Z" />
<glyph unicode="," glyph-name="null" horiz-adv-x="412" d="M71 -235Q68 -233 68 -230T67 -224Q67 -218 82 -199T117 -151T153 -82T173 4Q157 -7 134 -7Q105 -7 86 13T67 65Q67 94 86 115T137 136Q171 136 191 113T211 47Q211 -33 175 -109T80 -244L71 -235Z" />
<glyph unicode="-" glyph-name="null" horiz-adv-x="717" d="M153 612H567L562 568H146L153 612Z" />
<glyph unicode="." glyph-name="null" horiz-adv-x="454" d="M89 59Q89 91 110 113T164 136Q196 136 218 114T241 59Q241 27 219 6T164 -16Q132 -16 111 5T89 59Z" />
<glyph unicode="/" glyph-name="null" horiz-adv-x="794" d="M54 -58Q48 -71 38 -75T17 -80H-3L762 1421Q773 1442 796 1442H818L54 -58Z" />
<glyph unicode="0" glyph-name="null" horiz-adv-x="1160" d="M1065 857Q1065 635 1019 471T895 200T716 39T504 -14Q422 -14 352 21T230 126T149 303T120 550Q120 771 166 935T290 1207T469 1368T680 1422Q762 1422 832 1387T955 1281T1036 1104T1065 857ZM1011
859Q1011 991 986 1089T915 1251T809 1347T675 1379Q578 1379 488 1330T327 1178T215 920T172 548Q172 415 198 318T269 156T376 61T509 29Q606 29 697 78T857 228T969 486T1011 859Z" />
<glyph unicode="1" glyph-name="null" horiz-adv-x="1160" d="M893 40L887 0H233L239 40H546L697 1280Q699 1295 702 1310T708 1341L358 1035Q349 1027 341 1028T328 1036L315 1056L727 1413H766L597 40H893Z" />
<glyph unicode="2" glyph-name="null" horiz-adv-x="1160" d="M901 48Q921 48 918 29L914 0H93L96 19Q97 26 101 32T111 44L628 547Q698 616 759 679T865 807T936 943T962 1098Q962 1170 940 1222T879 1309T790 1361T685 1378Q618 1378 559 1356T451 1293T368
1196T313 1071Q308 1057 301 1052T282 1048L257 1051Q278 1138 319 1206T418 1323T545 1396T693 1422Q757 1422 815 1403T917 1344T987 1244T1014 1102Q1014 1010 986 934T909 790T797 658T662 524L165 39Q190 43 219 45T281 48H901Z" />
<glyph unicode="3" glyph-name="null" horiz-adv-x="1160" d="M257 1051Q278 1138 319 1206T418 1323T544 1396T692 1422Q756 1422 813 1404T914 1348T982 1253T1007 1118Q1007 1036 981 970T910 855T807 774T685 728Q752 718 803 692T889 626T940 535T958 424Q958
333 922 253T823 113T676 19T497 -16Q421 -16 365 0T269 43T204 106T162 181T138 262T126 340L145 347Q153 351 164 350T179 331Q181 323 184 297T198 237T229 166T285 98T373 47T502 27Q598 27 673 63T800 157T879 284T906 422Q906 481 887 532T824 622T713 682T549
705L553 741Q645 744 719 771T846 846T927 961T956 1110Q956 1179 934 1229T875 1313T789 1362T685 1378Q617 1378 558 1356T450 1293T366 1196T311 1071Q306 1057 299 1052T281 1048L257 1051Z" />
<glyph unicode="4" glyph-name="null" horiz-adv-x="1160" d="M735 464L835 1284Q838 1309 844 1333L134 464H735ZM1037 464L1034 439Q1032 422 1013 422H775L723 0H678L730 422H100Q89 422 85 426T79 438L77 460L854 1408H896L780 464H1037Z" />
<glyph unicode="5" glyph-name="null" horiz-adv-x="1160" d="M1019 1406L1016 1384Q1015 1373 1007 1366T983 1359H486L334 836Q403 854 463 862T576 871Q667 871 735 845T848 770T916 657T939 513Q939 388 897 290T785 124T625 20T438 -16Q387 -16 341 -7T255
18T183 54T128 96L145 116Q152 126 164 126Q173 126 193 111T248 79T331 46T446 31Q533 31 612 63T752 156T849 307T885 511Q885 580 866 638T808 738T708 804T564 828Q510 828 447 819T311 789L279 802L452 1406H1019Z" />
<glyph unicode="6" glyph-name="null" horiz-adv-x="1067" d="M505 27Q600 27 677 60T810 151T895 290T925 465Q925 539 904 598T844 700T750 765T625 788Q530 788 453 751T320 653T235 517T205 363Q205 291 225 230T284 123T378 53T505 27ZM430 847Q388 793 354
748T294 661Q358 740 448 784T639 829Q717 829 779 803T885 729T952 615T976 470Q976 362 940 273T839 120T688 20T501 -16Q423 -16 359 10T250 85T181 205T156 366Q156 423 169 478T209 593T278 717T380 856L812 1393Q821 1406 840 1406H885L430 847Z" />
<glyph unicode="7" glyph-name="null" horiz-adv-x="1160" d="M1113 1406L1110 1382Q1107 1365 1099 1354L315 21Q302 0 277 0H245L1032 1332Q1037 1340 1042 1346T1053 1359H272Q255 1359 258 1376L261 1406H1113Z" />
<glyph unicode="8" glyph-name="null" horiz-adv-x="1160" d="M509 26Q596 26 670 53T799 130T885 253T916 415Q916 502 885 559T806 650T702 697T594 711Q554 711 509 704T418 680T331 633T257 561T206 459T187 322Q187 255 210 201T275 107T376 47T509 26ZM319
1028Q319 974 335 925T386 837T473 776T598 753Q686 753 752 782T864 861T932 975T955 1108Q955 1166 937 1216T883 1302T795 1360T676 1381Q595 1381 529 1354T417 1280T345 1168T319 1028ZM704 734Q760 722 808 698T891 634T947 541T968 416Q968 315 933 235T835
99T689 14T505 -16Q421 -16 353 7T236 74T162 178T135 317Q135 413 163 485T240 609T352 690T489 734Q435 748 394 775T326 841T284 926T269 1026Q269 1108 298 1180T382 1306T512 1391T680 1422Q758 1422 819 1398T921 1331T984 1232T1006 1111Q1006 1041 986
980T926 869T831 785T704 734Z" />
<glyph unicode="9" glyph-name="null" horiz-adv-x="1160" d="M564 650Q655 650 729 685T855 778T936 908T965 1054Q965 1124 945 1184T886 1287T795 1354T677 1379Q592 1379 519 1349T391 1263T307 1130T276 958Q276 888 296 831T353 734T444 672T564 650ZM754
592Q796 648 830 693T891 783Q859 742 820 710T737 656T644 621T548 609Q473 609 413 635T311 707T247 816T224 955Q224 1056 260 1141T359 1289T505 1387T683 1422Q758 1422 819 1395T923 1319T991 1201T1015 1049Q1015 983 1001 928T960 819T892 708T798 579L377
12Q372 5 365 3T350 0H304L754 592Z" />
<glyph unicode=":" glyph-name="null" horiz-adv-x="460" d="M93 59Q93 91 114 113T168 136Q200 136 222 114T245 59Q245 27 223 6T168 -16Q136 -16 115 5T93 59ZM185 881Q185 913 206 935T260 958Q292 958 314 936T337 881Q337 849 315 828T260 806Q228 806 207
827T185 881Z" />
<glyph unicode=";" glyph-name="null" horiz-adv-x="479" d="M110 -235Q107 -233 107 -230T106 -224Q106 -218 121 -199T156 -151T192 -82T212 4Q196 -7 173 -7Q144 -7 125 13T106 65Q106 94 125 115T176 136Q210 136 230 113T250 47Q250 -33 214 -109T119 -244L110
-235ZM194 881Q194 913 215 935T269 958Q301 958 323 936T346 881Q346 849 324 828T269 806Q237 806 216 827T194 881Z" />
<glyph unicode="&lt;" glyph-name="null" horiz-adv-x="1160" d="M975 1060L972 1027Q970 1019 965 1013T946 1000L301 693Q286 686 271 681T238 671Q268 664 295 648L865 340Q885 329 884 314L880 281L188 659L190 677L191 682L975 1060Z" />
<glyph unicode="=" glyph-name="null" horiz-adv-x="1160" d="M164 546H974L970 506H159L164 546ZM201 847H1011L1007 807H196L201 847Z" />
<glyph unicode="&gt;" glyph-name="null" horiz-adv-x="1160" d="M984 664L983 659L199 281L203 314Q205 322 210 328T228 340L873 648Q888 655 904 660T937 670Q906 677 879 693L309 1000Q298 1007 294 1013T291 1027L294 1060L987 682L984 664Z" />
<glyph unicode="?" glyph-name="null" horiz-adv-x="793" d="M173 1284Q200 1310 232 1334T303 1378T386 1410T480 1422Q536 1422 585 1404T671 1353T729 1272T750 1165Q750 1082 725 1023T662 919T577 842T491 779T420 719T383 649L353 480H318L338 653Q342 695
371 728T440 791T526 853T611 928T675 1025T701 1158Q701 1210 683 1251T634 1320T561 1364T473 1379Q408 1379 360 1360T277 1319T223 1277T195 1258Q189 1258 183 1265L173 1284ZM237 59Q237 91 258 113T312 136Q344 136 366 114T389 59Q389 27 367 6T312 -16Q280
-16 259 5T237 59Z" />
<glyph unicode="@" glyph-name="null" horiz-adv-x="1524" d="M1052 858Q1027 866 1002 870T942 875Q877 875 819 855T711 800T621 719T553 620T510 511T495 401Q495 366 503 335T528 281T571 245T632 232Q668 232 707 245T786 293T864 387T936 539L1052 858ZM1245
-83Q1132 -158 1004 -197T729 -237Q595 -237 482 -193T285 -64T156 144T109 426Q109 556 138 672T221 887T348 1065T507 1199T691 1285T890 1315Q1000 1315 1099 1280T1272 1176T1390 1003T1434 763Q1434 634 1401 528T1312 347T1185 230T1038 189Q994 189 965
203T919 243T900 307T904 392Q842 289 769 242T617 195Q574 195 543 210T491 253T460 316T450 394Q450 453 466 514T514 633T589 741T689 829T811 889T951 911Q993 911 1033 904T1103 879L978 539Q942 438 936 377T943 282T986 237T1048 226Q1111 226 1173 263T1284
369T1363 538T1393 763Q1393 892 1353 989T1244 1150T1083 1246T886 1278Q793 1278 703 1251T530 1171T379 1044T259 875T180 668T151 430Q151 278 195 162T318 -35T503 -156T733 -197Q1003 -197 1215 -56Q1226 -49 1232 -52T1241 -63L1245 -83Z" />
<glyph unicode="A" glyph-name="null" horiz-adv-x="1194" d="M900 504L702 1289Q699 1303 696 1317T689 1348Q682 1332 676 1318T662 1289L271 504H900ZM1085 0H1044Q1028 0 1023 16L910 463H251L28 16Q23 9 17 5T2 0H-38L670 1406H722L1085 0Z" />
<glyph unicode="B" glyph-name="null" horiz-adv-x="1161" d="M543 44Q642 44 719 68T850 140T932 256T961 415Q961 478 938 529T872 617T767 672T625 692H276L196 44H543ZM281 732H586Q691 732 767 764T892 849T964 966T988 1096Q988 1223 907 1293T658 1363H359L281
732ZM662 1406Q855 1406 948 1327T1041 1106Q1041 1035 1017 971T950 855T846 767T714 718Q858 700 936 622T1015 417Q1015 319 982 242T888 111T738 29T539 0H137L310 1406H662Z" />
<glyph unicode="C" glyph-name="null" horiz-adv-x="1263" d="M661 30Q738 30 800 43T909 76T992 119T1052 162T1090 195T1111 208Q1115 208 1119 204L1138 182Q1092 138 1041 102T930 39T803 -1T654 -16Q535 -16 438 27T273 150T167 342T129 593Q129 778 184
930T336 1192T565 1362T850 1422Q921 1422 977 1412T1080 1380T1167 1327T1247 1253L1232 1234Q1225 1227 1214 1227Q1207 1227 1197 1238T1168 1265T1122 1301T1056 1337T966 1365T846 1376Q706 1376 586 1322T376 1166T235 920T184 596Q184 465 219 361T317 183T468
70T661 30Z" />
<glyph unicode="D" glyph-name="null" horiz-adv-x="1412" d="M1306 813Q1306 624 1253 474T1106 218T883 56T603 0H137L310 1406H776Q898 1406 996 1365T1163 1247T1269 1060T1306 813ZM1249 812Q1249 941 1216 1043T1120 1216T969 1324T771 1362H359L196 44H608Q746
44 863 96T1066 246T1200 487T1249 812Z" />
<glyph unicode="E" glyph-name="null" horiz-adv-x="1080" d="M358 1360L282 736H880L874 691H276L197 46H909L903 0H137L310 1406H1075L1068 1360H358Z" />
<glyph unicode="F" glyph-name="null" horiz-adv-x="1057" d="M358 1360L279 715H898L891 669H273L191 0H137L310 1406H1075L1068 1360H358Z" />
<glyph unicode="G" glyph-name="null" horiz-adv-x="1371" d="M1180 138Q1127 102 1072 74T956 25T825 -5T673 -16Q547 -16 447 27T276 150T168 342T130 593Q130 781 184 934T335 1195T567 1363T867 1422Q941 1422 1001 1412T1112 1381T1205 1329T1286 1257L1270
1238Q1262 1226 1247 1230Q1241 1232 1230 1243T1199 1271T1150 1305T1081 1339T986 1365T863 1376Q713 1376 588 1322T374 1166T235 920T185 594Q185 464 220 359T319 181T475 68T680 28Q755 28 816 37T931 63T1034 104T1134 160L1185 575H914Q906 575 902 580T899
590L901 617H1239L1180 138Z" />
<glyph unicode="H" glyph-name="null" horiz-adv-x="1394" d="M1283 1406L1110 0H1056L1141 692H276L191 0H137L310 1406H364L281 735H1146L1229 1406H1283Z" />
<glyph unicode="I" glyph-name="null" horiz-adv-x="475" d="M191 0H137L310 1406H364L191 0Z" />
<glyph unicode="J" glyph-name="null" horiz-adv-x="771" d="M552 424Q538 308 503 225T414 87T293 8T143 -16Q89 -16 46 -9T-38 14L-34 39Q-32 44 -29 49T-15 54Q-6 54 6 50T36 42T80 33T145 29Q208 29 266 48T371 113T451 234T498 423L619 1406H674L552 424Z" />
<glyph unicode="K" glyph-name="null" horiz-adv-x="1150" d="M281 738H365Q382 738 395 739T418 745T438 756T460 774L1101 1385Q1115 1399 1125 1402T1148 1406H1189L510 760Q492 743 480 734T450 721Q479 711 501 681L1052 0H1014Q995 0 988 4T974 19L454 654Q445
665 438 673T422 686T399 693T363 696H276L191 0H137L310 1408H364L281 738Z" />
<glyph unicode="L" glyph-name="null" horiz-adv-x="924" d="M837 47L831 0H137L310 1406H364L197 47H837Z" />
<glyph unicode="M" glyph-name="null" horiz-adv-x="1666" d="M1555 1406L1382 0H1335L1493 1287Q1494 1294 1495 1301T1498 1316L831 283Q820 267 806 267H796Q780 267 775 283L343 1320Q343 1312 343 1304T341 1287L184 0H137L310 1406H342Q356 1406 365 1394L799
348Q804 335 807 321Q810 328 813 335T822 348L1498 1394Q1504 1401 1509 1403T1523 1406H1555Z" />
<glyph unicode="N" glyph-name="null" horiz-adv-x="1394" d="M1283 1406L1110 0H1090Q1076 0 1066 15L344 1320L341 1287L184 0H137L310 1406H334Q342 1406 346 1404T355 1394L1077 91Q1077 100 1077 108T1079 124L1236 1406H1283Z" />
<glyph unicode="O" glyph-name="null" horiz-adv-x="1464" d="M1361 815Q1361 626 1308 473T1160 212T936 45T656 -14Q536 -14 439 29T273 151T167 342T130 591Q130 780 184 933T332 1195T555 1363T833 1422Q954 1422 1051 1379T1218 1256T1324 1064T1361 815ZM1304
814Q1304 944 1270 1048T1174 1225T1024 1337T827 1377Q692 1377 575 1323T371 1167T235 920T185 594Q185 464 219 360T315 183T465 71T661 31Q799 31 917 85T1121 240T1255 487T1304 814Z" />
<glyph unicode="P" glyph-name="null" horiz-adv-x="1054" d="M525 632Q624 632 705 664T845 753T936 887T968 1056Q968 1203 880 1283T616 1363H359L269 632H525ZM621 1406Q821 1406 922 1318T1023 1062Q1023 957 986 870T882 721T723 624T520 589H263L191 0H137L310
1406H621Z" />
<glyph unicode="Q" glyph-name="null" horiz-adv-x="1464" d="M185 594Q185 464 219 360T315 183T465 71T661 31Q799 31 917 85T1121 240T1255 487T1304 814Q1304 944 1270 1048T1174 1225T1024 1337T827 1377Q692 1377 575 1323T371 1167T235 920T185 594ZM938
46Q874 17 803 2T656 -14Q536 -14 439 29T273 151T167 342T130 591Q130 780 184 933T332 1195T555 1363T833 1422Q954 1422 1051 1379T1218 1256T1324 1064T1361 815Q1361 682 1334 567T1258 356T1138 189T982 68L1274 -321H1235Q1212 -321 1199 -306L938 46Z"
/>
<glyph unicode="R" glyph-name="null" horiz-adv-x="1108" d="M278 704H522Q621 704 702 731T840 808T929 931T960 1093Q960 1230 873 1296T619 1363H331L357 1341L278 704ZM624 1406Q816 1406 915 1330T1014 1100Q1014 1005 982 928T890 795T749 706T569 667Q585
655 597 636L998 0H955Q944 0 937 3T922 17L545 625Q531 646 515 654T461 662H273L191 0H137L310 1406H624Z" />
<glyph unicode="S" glyph-name="null" horiz-adv-x="987" d="M902 1261Q896 1251 885 1251Q875 1251 859 1270T814 1314T736 1357T614 1377Q532 1377 467 1350T357 1276T288 1167T264 1035Q264 969 289 925T355 849T449 795T557 752T665 707T759 649T826 565T851
445Q851 352 819 268T728 121T583 21T392 -16Q327 -16 276 -4T182 32T106 90T43 167L60 187Q65 191 68 193T79 196Q86 196 96 184T121 153T160 113T217 73T294 42T398 29Q490 29 564 61T691 148T772 277T800 436Q800 502 775 546T709 621T615 673T507 715T399 759T305
817T238 902T213 1026Q213 1104 240 1175T320 1302T448 1389T620 1422Q717 1422 789 1387T915 1280L902 1261Z" />
<glyph unicode="T" glyph-name="null" horiz-adv-x="1051" d="M1118 1359H646L479 0H425L592 1359H116L121 1406H1123L1118 1359Z" />
<glyph unicode="U" glyph-name="null" horiz-adv-x="1345" d="M604 30Q703 30 786 68T932 174T1035 332T1089 527L1196 1406H1251L1143 527Q1128 414 1083 315T966 141T802 25T597 -18Q487 -18 404 24T267 141T193 314T186 527L294 1406H348L240 529Q228 425 245
334T309 176T430 69T604 30Z" />
<glyph unicode="V" glyph-name="null" horiz-adv-x="1187" d="M1253 1406L545 0H497L132 1406H174Q191 1406 193 1390L516 127Q520 113 523 97T529 64Q536 81 542 97T557 127L1188 1390Q1195 1406 1213 1406H1253Z" />
<glyph unicode="W" glyph-name="null" horiz-adv-x="1859" d="M1904 1406L1322 0H1275L1024 1300Q1022 1309 1021 1320T1019 1342Q1015 1331 1012 1320T1004 1300L434 0H386L150 1406H192Q209 1406 211 1390L415 129Q417 115 418 100T422 68Q427 85 432 100T444
129L998 1390Q1005 1406 1022 1406H1033Q1049 1406 1052 1390L1296 129Q1298 115 1300 101T1303 70Q1308 86 1313 100T1324 129L1838 1390Q1840 1397 1847 1401T1863 1406H1904Z" />
<glyph unicode="X" glyph-name="null" horiz-adv-x="1139" d="M628 753L1034 0H985Q974 0 970 6T963 18L589 723Q587 718 584 714T578 705L41 18Q28 0 14 0H-39L553 752L195 1406H243Q253 1406 257 1402T267 1388L593 778Q595 786 604 798L1071 1393Q1080 1406
1096 1406H1146L628 753Z" />
<glyph unicode="Y" glyph-name="null" horiz-adv-x="1072" d="M563 590L489 0H435L509 592L127 1406H174Q190 1406 195 1391L526 674Q531 663 534 652T541 630Q547 642 553 652T566 674L1074 1391Q1082 1406 1098 1406H1143L563 590Z" />
<glyph unicode="Z" glyph-name="null" horiz-adv-x="1091" d="M1112 1387Q1110 1377 1100 1365L74 46H944L937 0H-6L-3 19Q-1 25 1 29T8 39L1036 1360H180L187 1406H1116L1112 1387Z" />
<glyph unicode="[" glyph-name="null" horiz-adv-x="549" d="M585 1490Q582 1472 564 1472H359L149 -215H357Q376 -215 374 -233L371 -250H102L318 1508H587L585 1490Z" />
<glyph unicode="\" glyph-name="null" horiz-adv-x="786" d="M180 1442H201Q226 1442 231 1421L627 -80H608Q597 -80 588 -76T575 -58L180 1442Z" />
<glyph unicode="]" glyph-name="null" horiz-adv-x="552" d="M242 -250H-29L-27 -233Q-24 -215 -5 -215H201L409 1472H203Q182 1472 185 1490L187 1508H457L242 -250Z" />
<glyph unicode="^" glyph-name="null" horiz-adv-x="1160" d="M983 807H947Q939 807 933 812T922 825L657 1303Q643 1330 636 1353Q627 1328 614 1303L350 825Q346 819 340 813T324 807H288L620 1406H651L983 807Z" />
<glyph unicode="_" glyph-name="null" horiz-adv-x="886" d="M705 -227L699 -266H-25L-21 -227H705Z" />
<glyph unicode="`" glyph-name="null" horiz-adv-x="736" d="M416 1422Q434 1422 442 1417T459 1396L580 1159H552Q546 1159 541 1161T532 1171L368 1422H416Z" />
<glyph unicode="a" glyph-name="null" horiz-adv-x="984" d="M812 928Q778 944 742 951T664 958Q594 958 527 934T401 868T292 767T206 639T149 493T129 335Q129 264 141 208T178 113T241 52T334 31Q396 31 455 64T569 158T672 305T760 497L812 928ZM750 396Q712
306 665 231T563 102T448 18T322 -12Q258 -12 212 13T136 83T92 190T77 329Q77 414 99 496T160 653T255 791T375 900T515 972T668 998Q725 998 772 988T866 951L750 0H728Q716 0 712 7T708 23L750 396Z" />
<glyph unicode="b" glyph-name="null" horiz-adv-x="1018" d="M166 198Q189 151 218 119T281 67T352 38T428 29Q496 29 554 56T661 131T747 241T809 373T848 515T861 655Q861 725 847 781T805 876T737 937T642 958Q580 958 519 925T400 832T293 685T202 491L166
198ZM215 598Q254 687 304 761T410 888T528 970T654 1000Q719 1000 767 975T848 905T896 796T912 658Q912 584 897 506T853 354T782 213T687 96T569 17T431 -12Q346 -12 273 29T157 153L135 21Q133 11 130 6T116 0H93L268 1446H318L215 598Z" />
<glyph unicode="c" glyph-name="null" horiz-adv-x="912" d="M793 182Q739 122 692 84T599 25T508 -4T413 -12Q328 -12 267 17T165 99T105 222T85 376Q85 454 101 531T147 677T220 806T316 909T433 977T567 1002Q615 1002 654 993T726 966T783 924T831 870L817
854Q811 848 802 848Q794 848 780 865T740 903T671 941T565 959Q473 959 395 910T259 780T170 593T137 375Q137 302 153 239T204 130T292 57T419 30Q477 30 522 42T604 74T666 115T712 156T745 187T768 200Q777 200 783 194L793 182V182Z" />
<glyph unicode="d" glyph-name="null" horiz-adv-x="1019" d="M827 793Q804 839 775 870T711 921T640 949T565 958Q497 958 438 931T331 856T246 747T184 616T145 475T132 335Q132 264 146 208T188 112T256 51T351 30Q412 30 473 62T592 155T699 301T789 493L827
793ZM958 1446L781 0H759Q746 0 742 7T738 23L780 395Q741 305 691 230T584 101T465 18T339 -12Q274 -12 226 13T145 84T97 193T81 331Q81 405 96 483T140 635T211 775T306 892T424 971T562 1000Q646 1000 718 962T833 843L908 1446H958Z" />
<glyph unicode="e" glyph-name="null" horiz-adv-x="927" d="M573 960Q484 960 413 922T289 821T200 677T148 510Q287 525 388 544T559 587T673 636T740 690T772 748T780 809Q780 832 770 858T735 907T671 945T573 960ZM798 183Q750 132 705 95T614 34T520 -1T416
-12Q335 -12 273 14T169 90T106 209T85 368Q85 442 99 517T142 663T212 794T308 901T430 973T575 1000Q646 1000 694 981T771 932T812 870T824 811Q824 771 814 735T775 667T699 606T575 553T393 508T142 472Q138 446 137 421T135 369Q135 290 153 228T207 121T297
54T424 30Q479 30 524 42T605 74T668 115T715 157T750 188T774 201Q782 201 788 195L798 183Z" />
<glyph unicode="f" glyph-name="null" horiz-adv-x="603" d="M299 910L190 14L150 -228Q145 -251 123 -251H107L249 909L110 915Q95 916 95 930L97 948H253L271 1089Q281 1173 308 1235T376 1339T466 1401T575 1421Q601 1421 629 1416T677 1400L671 1376Q669 1369
663 1369T644 1371T615 1377T575 1381Q528 1381 486 1365T411 1314T354 1224T320 1088L302 948H598L591 910H299Z" />
<glyph unicode="g" glyph-name="null" horiz-adv-x="901" d="M406 409Q476 409 531 437T624 512T682 618T702 737Q702 794 686 836T641 905T571 947T480 961Q410 961 356 934T264 862T207 759T187 640Q187 525 246 467T406 409ZM680 -67Q680 -37 674 -12T656 34T631
73T602 108Q453 128 342 115T157 66T45 -24T7 -139Q7 -186 29 -222T90 -283T183 -321T304 -334Q389 -334 458 -311T576 -251T652 -165T680 -67ZM904 952L903 934Q902 929 898 924T881 917L694 911Q748 845 748 739Q747 680 733 633T697 546T650 473T604 407T568
343T554 275Q553 247 566 223T598 175T641 127T683 74T715 12T728 -64Q727 -124 696 -179T609 -278T474 -348T300 -374Q225 -374 162 -359T54 -315T-16 -242T-42 -143Q-41 -65 5 -4T134 97T327 149T567 145Q544 171 529 199T513 265Q513 283 516 301T527 339T550
383T586 436Q544 405 496 389T397 372Q340 372 293 390T211 442T158 526T139 640Q139 708 162 772T229 887T338 969T484 1000Q585 1000 651 952H904Z" />
<glyph unicode="h" glyph-name="null" horiz-adv-x="1017" d="M221 640Q261 724 312 790T419 903T535 975T656 1000Q720 1000 764 975T834 903T867 788T864 631L790 0H739L813 631Q832 786 792 871T642 957Q584 957 525 928T409 846T302 716T210 545L144 0H93L268
1446H319L221 640Z" />
<glyph unicode="i" glyph-name="null" horiz-adv-x="405" d="M275 986L154 0H104L224 986H275ZM351 1342Q351 1315 331 1295T285 1274Q259 1274 240 1294T221 1342Q221 1370 240 1390T286 1411Q311 1411 331 1391T351 1342Z" />
<glyph unicode="j" glyph-name="null" horiz-adv-x="404" d="M275 986L134 -154Q128 -201 110 -241T64 -310T-3 -355T-88 -372Q-114 -372 -132 -367T-168 -351L-162 -326Q-158 -318 -153 -318T-140 -320T-120 -327T-90 -331Q-15 -331 29 -283T84 -154L224 986H275ZM355
1342Q355 1315 335 1295T290 1274Q264 1274 245 1294T225 1342Q225 1370 244 1390T290 1411Q315 1411 335 1391T355 1342Z" />
<glyph unicode="k" glyph-name="null" horiz-adv-x="852" d="M319 1446L209 549H250Q266 549 276 552T300 569L752 966Q761 976 770 981T794 986H836L348 559Q330 542 317 536Q330 530 338 522T354 503L750 0H708Q698 0 691 3T676 16L309 483Q295 500 282 506T241
512H204L142 0H92L269 1446H319Z" />
<glyph unicode="l" glyph-name="null" horiz-adv-x="401" d="M104 0L279 1446H329L153 0H104Z" />
<glyph unicode="m" glyph-name="null" horiz-adv-x="1553" d="M93 0L212 990H232Q243 990 248 983T253 967L216 628Q255 715 302 784T403 901T515 974T635 1000Q696 1000 734 977T790 910T811 801T805 655Q843 742 892 807T995 915T1107 979T1218 1000Q1282 1000
1322 975T1383 903T1407 788T1399 631L1325 0H1275L1349 631Q1358 709 1357 769T1341 871T1292 935T1204 957Q1152 957 1097 934T990 864T889 745T801 575L733 0H683L757 631Q766 709 767 769T754 871T709 935T622 957Q498 957 394 849T207 537L143 0H93Z" />
<glyph unicode="n" glyph-name="null" horiz-adv-x="1018" d="M216 624Q256 711 307 781T415 899T534 974T658 1000Q722 1000 766 975T836 903T869 788T866 631L791 0H741L815 631Q834 786 794 871T644 957Q585 957 524 928T406 843T298 710T207 534L144 0H93L212
990H232Q243 990 247 983T252 967L216 624Z" />
<glyph unicode="o" glyph-name="null" horiz-adv-x="1021" d="M436 30Q530 30 607 78T740 207T825 389T856 600Q856 684 836 750T777 863T683 933T560 958Q497 958 442 936T340 876T256 784T193 667T154 534T140 390Q140 306 160 239T219 126T312 55T436 30ZM431
-12Q352 -12 289 16T181 96T112 222T88 390Q88 468 103 544T148 687T219 812T314 911T430 976T565 1000Q644 1000 707 972T815 892T884 766T908 600Q908 522 893 447T848 303T777 177T682 77T566 12T431 -12Z" />
<glyph unicode="p" glyph-name="null" horiz-adv-x="1019" d="M167 198Q190 151 219 119T282 67T353 38T429 29Q497 29 555 56T662 131T748 241T810 373T849 515T862 655Q862 725 848 781T806 876T738 937T643 958Q581 958 520 925T401 832T293 685T202 491L167
198ZM213 592Q252 683 302 758T409 887T528 970T655 1000Q720 1000 768 975T849 905T897 796T913 658Q913 584 898 506T854 354T783 213T688 96T570 17T432 -12Q390 -12 351 -2T276 28T212 78T161 148L99 -357H49L213 990H232Q244 990 248 983T253 967L213 592Z"
/>
<glyph unicode="q" glyph-name="null" horiz-adv-x="986" d="M812 928Q778 944 742 951T664 958Q594 958 527 934T401 868T292 767T206 639T149 493T129 335Q129 264 141 208T178 113T241 52T334 31Q395 31 454 63T568 156T671 302T758 493L812 928ZM744 381Q706
294 659 222T558 97T445 17T322 -12Q258 -12 212 13T136 83T92 190T77 329Q77 414 99 496T160 653T255 791T375 900T515 972T668 998Q725 998 772 988T866 951L707 -357H683Q666 -357 660 -348T657 -315L744 381Z" />
<glyph unicode="r" glyph-name="null" horiz-adv-x="643" d="M217 631Q258 737 307 814T413 937T531 994T657 981L648 935Q579 961 516 946T398 878T294 738T207 533L143 0H93L212 990H232Q243 990 248 983T253 967L217 631Z" />
<glyph unicode="s" glyph-name="null" horiz-adv-x="780" d="M690 884Q684 875 675 875Q667 875 654 888T615 917T551 946T454 960Q399 960 350 941T264 891T204 817T182 728Q182 684 201 654T253 603T326 566T410 535T494 502T567 459T618 397T638 307Q638 246
614 188T544 85T436 12T294 -16Q246 -16 208 -8T138 16T80 54T30 103L43 120Q50 130 60 130Q67 130 81 113T123 76T193 39T302 22Q367 22 420 44T512 104T571 192T592 299Q592 347 573 379T521 433T448 472T364 503T280 534T207 575T156 635T136 721Q136 776 161
826T229 915T332 977T459 1000Q539 1000 596 976T702 901L690 884Z" />
<glyph unicode="t" glyph-name="null" horiz-adv-x="668" d="M160 154Q160 160 160 169T162 195T167 241T176 312L248 908H106Q91 908 91 923L94 941L253 948L313 1328Q315 1334 319 1339T331 1345H353L304 948H603L598 908H299L227 312Q221 271 218 245T214 201T212
174T211 161Q211 90 244 59T330 27Q366 27 394 39T444 65T478 91T498 103Q504 103 508 97L517 78Q481 36 427 10T318 -16Q243 -16 202 25T160 154Z" />
<glyph unicode="u" glyph-name="null" horiz-adv-x="1018" d="M899 986L780 0H759Q747 0 742 7T737 23L777 366Q737 279 686 209T578 90T458 15T335 -12Q207 -12 156 85T127 358L201 986H252L177 358Q168 280 173 220T198 117T256 53T348 31Q408 31 468 60T586
145T693 278T785 453L848 986H899Z" />
<glyph unicode="v" glyph-name="null" horiz-adv-x="911" d="M915 986L404 0H363L93 986H129Q139 986 144 980T151 968L381 115Q384 100 386 85T389 54Q400 86 414 115L853 968Q857 976 864 981T879 986H915Z" />
<glyph unicode="w" glyph-name="null" horiz-adv-x="1391" d="M1382 986L955 0H922Q910 0 908 14L740 885Q738 895 737 904T736 923Q733 913 730 904T722 885L338 14Q333 0 322 0H290L104 986H137Q154 986 159 968L313 115Q315 100 316 86T318 57Q323 71 329 85T342
115L717 977Q722 991 736 991H753Q766 991 768 977L932 115Q934 100 936 86T939 56Q944 70 950 84T962 115L1325 968Q1328 976 1334 981T1349 986H1382Z" />
<glyph unicode="x" glyph-name="null" horiz-adv-x="843" d="M446 524L731 0H692Q673 0 666 15L409 496Q407 491 404 487T397 477L33 13Q28 7 23 4T9 0H-33L384 526L128 986H167Q177 986 181 984T190 975L420 553Q424 562 432 571L749 974Q757 986 769 986H813L446 524Z" />
<glyph unicode="y" glyph-name="null" horiz-adv-x="913" d="M919 986L224 -336Q213 -357 195 -357H161L365 24L96 986H133Q151 986 154 968L388 124Q391 112 392 100T396 76Q405 100 417 124L859 971Q867 986 882 986H919Z" />
<glyph unicode="z" glyph-name="null" horiz-adv-x="816" d="M794 986L791 964Q791 958 788 953T779 942L63 42H652L648 0H-6L-4 19Q-4 25 -1 31T8 42L726 944H140L146 986H794Z" />
<glyph unicode="{" glyph-name="null" horiz-adv-x="547" d="M581 1508L580 1487Q575 1472 560 1472H524Q479 1472 439 1453T368 1397T319 1305T301 1178Q300 1140 302 1100T308 1019T313 939T315 863Q315 807 300 765T261 695T209 650T154 629Q176 624 196 612T233
581T258 535T268 476Q268 414 250 354T211 233T171 110T153 -20Q153 -64 165 -99T198 -161T250 -201T317 -215H355Q360 -215 365 -218T369 -230L366 -250H314Q265 -250 227 -232T162 -183T121 -109T107 -18Q107 51 125 113T166 234T206 352T225 475Q225 535 188
573T91 611L95 646Q132 646 164 660T220 703T257 775T271 877Q271 910 269 946T263 1020T258 1094T255 1165Q255 1243 275 1306T332 1415T419 1484T530 1508H581Z" />
<glyph unicode="|" glyph-name="null" horiz-adv-x="476" d="M215 1508H257V-357H215V1508Z" />
<glyph unicode="}" glyph-name="null" horiz-adv-x="549" d="M242 1508Q291 1508 329 1490T393 1441T434 1367T448 1276Q448 1207 430 1145T390 1024T350 905T332 782Q332 722 368 684T466 646L461 611Q425 611 393 597T337 554T299 482T285 380Q285 347 287 311T293
237T298 163T301 93Q301 15 281 -48T224 -157T137 -226T26 -250H-26L-22 -230Q-22 -222 -17 -219T-4 -215H31Q76 -215 116 -196T187 -140T236 -48T255 79Q255 117 253 157T249 238T244 318T242 394Q243 450 258 492T296 562T347 607T403 629Q381 634 360 646T323
677T297 722T287 781Q287 843 305 903T345 1024T385 1147T403 1277Q403 1321 391 1357T358 1418T306 1458T239 1472H203Q196 1472 192 1475T189 1487L190 1508H242Z" />
<glyph unicode="~" glyph-name="null" horiz-adv-x="1160" d="M790 544Q830 544 862 558T917 599T952 659T966 735H1009Q1009 687 995 645T952 570T884 519T792 500Q741 500 686 521T577 568T470 615T371 637Q331 637 299 623T245 582T210 521T196 445H153Q153
493 167 535T209 610T277 661T369 680Q403 680 439 670T512 645T585 612T657 579T725 554T790 544Z" />
</font>
</defs>
</svg>
